<svg width="216" height="193" viewBox="0 0 216 193" fill="none" xmlns="http://www.w3.org/2000/svg">
<path d="M21.7469 0V27.6715H0V60.9474H18.5901V135.555C20.5777 151.785 35.7071 184.243 80.3233 184.243V151.318C71.9052 152.135 55.0688 150.127 55.0688 135.555V60.9474H83.8309V27.6715H55.0688V0H21.7469Z" fill="#4F46E5"/>
<path d="M102.421 26.6207V60.2468H157.841C166.025 60.2468 182.394 65.0806 182.394 84.4156V133.804C180.991 139.992 174.116 152.368 157.841 152.368L129.079 151.318C128.143 151.084 125.22 151.668 121.011 155.871L90.1445 193L106.981 184.243H175.378C188.824 181.324 215.716 167.15 215.716 133.804V84.4156C217.82 65.1506 209.191 26.6207 157.841 26.6207H102.421Z" fill="#818CF8"/>
</svg>
