<svg width="621" height="123" viewBox="0 0 621 123" fill="none" xmlns="http://www.w3.org/2000/svg">
<path d="M0 0.499999V30H31V122H62.5V30H93.5V0.499999H0Z" fill="#4F46E5"/>
<path fill-rule="evenodd" clip-rule="evenodd" d="M111.5 0.499999V122H193C197 121.667 205 118.3 205 107.5V14C205.167 9.5 203 0.499999 193 0.499999H111.5ZM143 93V30H172L174.5 33.5V90L172 93H143Z" fill="#4F46E5"/>
<path d="M223 0.499999V30H238.5V93H223V122H286V93H270V30H286V0.499999H223Z" fill="#4F46E5"/>
<path d="M389.5 0.499999H317.5C313 0.333333 304 2.8 304 14V48C303.333 51.8333 305.1 60.6 317.5 65L363 81C364 81.3333 366 82.3 366 83.5V90.5C366 91.3333 365.4 93 363 93H303V122H384.5C388.667 121.167 397 117.6 397 110V73.5C397 70 394.5 62.1 384.5 58.5L336.5 41.5C336 41.3333 335 40.8 335 40V32C335 31.3333 335.4 30 337 30H389.5V0.499999Z" fill="#4F46E5"/>
<path fill-rule="evenodd" clip-rule="evenodd" d="M415 0.499999V122H446V83.5H497C500.833 83.3333 508.5 80.7 508.5 71.5V14C508.667 9.5 506.6 0.499999 497 0.499999H415ZM446 53.5V30H476C477.6 30 478 32 478 33V51C478 53 476.667 53.5 476 53.5H446Z" fill="#4F46E5"/>
<path fill-rule="evenodd" clip-rule="evenodd" d="M526.5 14V110C526.167 114 528.2 122 539 122H608.5C612.5 122.5 620.5 120.8 620.5 110V14C620.833 9.5 618.9 0.499999 608.5 0.499999H539C534.833 0.333332 526.5 2.8 526.5 14ZM588 93L560.5 92.5C558.5 92.5 558 91.1667 558 90.5V32C558 30 559.667 29.8333 560.5 30H588C589.2 30 589.5 32 589.5 33V90.5C589.5 92.5 588.5 93 588 93Z" fill="#4F46E5"/>
</svg>
